<mxfile host="app.diagrams.net" modified="2020-05-14T06:35:58.699Z" agent="5.0 (Windows NT 10.0; Win64; x64) AppleWebKit/537.36 (KHTML, like Gecko) Chrome/81.0.4044.138 Safari/537.36" etag="KwFjKwuQUf7gUKfWG1gm" version="13.1.0" type="github">
  <diagram id="IBaJy11QaVMjjwJFgBuy" name="Page-1">
    <mxGraphModel dx="1294" dy="1143" grid="1" gridSize="10" guides="1" tooltips="1" connect="1" arrows="1" fold="1" page="1" pageScale="1" pageWidth="1169" pageHeight="827" math="0" shadow="0">
      <root>
        <mxCell id="0" />
        <mxCell id="1" parent="0" />
        <mxCell id="nzf0ck4mSkzZNCcZiq0Q-44" value="WEMA&lt;br&gt;assets" style="points=[[0,0],[0.25,0],[0.5,0],[0.75,0],[1,0],[1,0.25],[1,0.5],[1,0.75],[1,1],[0.75,1],[0.5,1],[0.25,1],[0,1],[0,0.75],[0,0.5],[0,0.25]];outlineConnect=0;gradientColor=#ffffff;html=1;whiteSpace=wrap;fontSize=12;fontStyle=1;shape=mxgraph.aws4.group;grIcon=mxgraph.aws4.group_corporate_data_center;strokeColor=#5A6C86;fillColor=none;verticalAlign=top;align=left;spacingLeft=30;fontColor=#5A6C86;dashed=0;shadow=1;" parent="1" vertex="1">
          <mxGeometry x="40" y="159" width="480" height="580" as="geometry" />
        </mxCell>
        <mxCell id="nzf0ck4mSkzZNCcZiq0Q-11" value="" style="whiteSpace=wrap;html=1;dashed=0;fontColor=#AAB7B8;fontStyle=0;align=left;verticalAlign=top;strokeColor=#000000;fillColor=none;gradientColor=none;spacingLeft=30;aspect=fixed;" parent="1" vertex="1">
          <mxGeometry x="195" y="183.5" width="164" height="164" as="geometry" />
        </mxCell>
        <mxCell id="nzf0ck4mSkzZNCcZiq0Q-15" value="2" style="rounded=1;whiteSpace=wrap;html=1;fillColor=#007CBD;strokeColor=none;fontColor=#FFFFFF;fontStyle=1;fontSize=22;" parent="1" vertex="1">
          <mxGeometry x="297" y="472" width="40" height="38" as="geometry" />
        </mxCell>
        <mxCell id="nzf0ck4mSkzZNCcZiq0Q-46" value="WEMA&lt;br&gt;assets" style="points=[[0,0],[0.25,0],[0.5,0],[0.75,0],[1,0],[1,0.25],[1,0.5],[1,0.75],[1,1],[0.75,1],[0.5,1],[0.25,1],[0,1],[0,0.75],[0,0.5],[0,0.25]];outlineConnect=0;gradientColor=#ffffff;html=1;whiteSpace=wrap;fontSize=12;fontStyle=1;shape=mxgraph.aws4.group;grIcon=mxgraph.aws4.group_corporate_data_center;strokeColor=#5A6C86;fillColor=none;verticalAlign=top;align=left;spacingLeft=30;fontColor=#5A6C86;dashed=0;shadow=1;" parent="1" vertex="1">
          <mxGeometry x="640" y="159" width="480" height="580" as="geometry" />
        </mxCell>
        <mxCell id="nzf0ck4mSkzZNCcZiq0Q-2" value="Tranwall application update plan overview &lt;br&gt;for WEMA of Nigeria Ltd&lt;div style=&quot;font-size: 36px&quot;&gt;&lt;/div&gt;" style="text;html=1;resizable=0;points=[];autosize=1;align=left;verticalAlign=top;spacingTop=-4;fontSize=36;fontStyle=1" parent="1" vertex="1">
          <mxGeometry x="50" y="40" width="740" height="90" as="geometry" />
        </mxCell>
        <mxCell id="nzf0ck4mSkzZNCcZiq0Q-4" value="" style="whiteSpace=wrap;html=1;dashed=0;fontColor=#AAB7B8;fontStyle=0;align=left;verticalAlign=top;strokeColor=#000000;fillColor=none;gradientColor=none;spacingLeft=30;aspect=fixed;" parent="1" vertex="1">
          <mxGeometry x="195" y="534" width="164" height="164" as="geometry" />
        </mxCell>
        <mxCell id="nzf0ck4mSkzZNCcZiq0Q-5" value="Tranwall core&lt;br&gt;&lt;span style=&quot;text-align: left&quot;&gt;Pre-production VM&lt;br&gt;&lt;/span&gt;" style="outlineConnect=0;fontColor=#232F3E;gradientColor=#CCCCCC;gradientDirection=north;fillColor=#333333;strokeColor=#ffffff;dashed=0;verticalLabelPosition=middle;verticalAlign=middle;align=left;html=1;fontSize=12;fontStyle=0;aspect=fixed;shape=mxgraph.aws4.resourceIcon;resIcon=mxgraph.aws4.compute;labelPosition=right;spacing=5;spacingBottom=-6;" parent="1" vertex="1">
          <mxGeometry x="195" y="534" width="40" height="40" as="geometry" />
        </mxCell>
        <mxCell id="nzf0ck4mSkzZNCcZiq0Q-7" value="4" style="rounded=1;whiteSpace=wrap;html=1;fillColor=#007CBD;strokeColor=none;fontColor=#FFFFFF;fontStyle=1;fontSize=22;" parent="1" vertex="1">
          <mxGeometry x="339" y="168" width="40" height="38" as="geometry" />
        </mxCell>
        <mxCell id="nzf0ck4mSkzZNCcZiq0Q-8" value="&lt;span style=&quot;text-align: left&quot;&gt;&lt;b&gt;Tranwall&lt;br&gt;Core Service 1.6&lt;/b&gt;&lt;/span&gt;" style="outlineConnect=0;fontColor=#232F3E;gradientColor=#000000;gradientDirection=north;fillColor=#660000;strokeColor=#E6E6E6;dashed=0;verticalLabelPosition=bottom;verticalAlign=top;align=center;html=1;fontSize=12;fontStyle=0;aspect=fixed;shape=mxgraph.aws4.resourceIcon;resIcon=mxgraph.aws4.chime;shadow=0;" parent="1" vertex="1">
          <mxGeometry x="245" y="584" width="64" height="64" as="geometry" />
        </mxCell>
        <mxCell id="nzf0ck4mSkzZNCcZiq0Q-10" value="1" style="rounded=1;whiteSpace=wrap;html=1;fillColor=#007CBD;strokeColor=none;fontColor=#FFFFFF;fontStyle=1;fontSize=22;" parent="1" vertex="1">
          <mxGeometry x="92" y="471" width="40" height="38" as="geometry" />
        </mxCell>
        <mxCell id="nzf0ck4mSkzZNCcZiq0Q-13" value="Tranwall core&lt;br&gt;&lt;span style=&quot;text-align: left&quot;&gt;Old production VM&lt;br&gt;&lt;/span&gt;" style="outlineConnect=0;fontColor=#232F3E;gradientColor=#FF0000;gradientDirection=north;fillColor=#333333;strokeColor=#ffffff;dashed=0;verticalLabelPosition=middle;verticalAlign=middle;align=left;html=1;fontSize=12;fontStyle=0;aspect=fixed;shape=mxgraph.aws4.resourceIcon;resIcon=mxgraph.aws4.compute;labelPosition=right;spacing=5;spacingBottom=-5;" parent="1" vertex="1">
          <mxGeometry x="194" y="183.5" width="40" height="40" as="geometry" />
        </mxCell>
        <mxCell id="nzf0ck4mSkzZNCcZiq0Q-16" value="Transaction Auth&amp;nbsp;&lt;br&gt;online system" style="outlineConnect=0;fontColor=#232F3E;gradientColor=#FF6666;gradientDirection=north;fillColor=#0000CC;strokeColor=#ffffff;dashed=0;verticalLabelPosition=top;verticalAlign=bottom;align=center;html=1;fontSize=12;fontStyle=0;aspect=fixed;shape=mxgraph.aws4.resourceIcon;resIcon=mxgraph.aws4.application_integration;labelPosition=center;" parent="1" vertex="1">
          <mxGeometry x="245" y="419" width="64" height="64" as="geometry" />
        </mxCell>
        <mxCell id="nzf0ck4mSkzZNCcZiq0Q-18" value="" style="edgeStyle=orthogonalEdgeStyle;rounded=0;orthogonalLoop=1;jettySize=auto;html=1;strokeColor=#545B64;strokeWidth=2;endFill=1;endArrow=classic;startArrow=classic;startFill=1;entryX=0.5;entryY=1;entryDx=0;entryDy=0;" parent="1" edge="1" target="nzf0ck4mSkzZNCcZiq0Q-11">
          <mxGeometry relative="1" as="geometry">
            <mxPoint x="277" y="390" as="sourcePoint" />
            <mxPoint x="219" y="348" as="targetPoint" />
            <Array as="points" />
          </mxGeometry>
        </mxCell>
        <mxCell id="nzf0ck4mSkzZNCcZiq0Q-20" value="&lt;span style=&quot;text-align: left&quot;&gt;&lt;b&gt;Tranwall&lt;br&gt;Core Service 1.1&lt;/b&gt;&lt;/span&gt;" style="outlineConnect=0;fontColor=#232F3E;gradientColor=#000000;gradientDirection=north;fillColor=#660000;strokeColor=#E6E6E6;dashed=0;verticalLabelPosition=bottom;verticalAlign=top;align=center;html=1;fontSize=12;fontStyle=0;aspect=fixed;shape=mxgraph.aws4.resourceIcon;resIcon=mxgraph.aws4.chime;shadow=0;" parent="1" vertex="1">
          <mxGeometry x="247.5" y="238.75" width="64" height="64" as="geometry" />
        </mxCell>
        <mxCell id="nzf0ck4mSkzZNCcZiq0Q-23" value="3" style="rounded=1;whiteSpace=wrap;html=1;fillColor=#007CBD;strokeColor=none;fontColor=#FFFFFF;fontStyle=1;fontSize=22;" parent="1" vertex="1">
          <mxGeometry x="425" y="471" width="40" height="38" as="geometry" />
        </mxCell>
        <mxCell id="nzf0ck4mSkzZNCcZiq0Q-28" value="" style="rounded=0;orthogonalLoop=1;jettySize=auto;html=1;strokeColor=#545B64;strokeWidth=2;endFill=1;endArrow=classic;startArrow=classic;startFill=1;entryX=0.9;entryY=1.02;entryDx=0;entryDy=0;entryPerimeter=0;exitX=0.25;exitY=0;exitDx=0;exitDy=0;" parent="1" target="nzf0ck4mSkzZNCcZiq0Q-11" edge="1" source="bFQa1tYsNeAtM3Lu0oPh-5">
          <mxGeometry relative="1" as="geometry">
            <mxPoint x="109" y="460" as="sourcePoint" />
            <mxPoint x="242.03351955307267" y="616.5" as="targetPoint" />
          </mxGeometry>
        </mxCell>
        <mxCell id="nzf0ck4mSkzZNCcZiq0Q-48" value="" style="shape=flexArrow;endArrow=classic;html=1;" parent="1" edge="1">
          <mxGeometry width="50" height="50" relative="1" as="geometry">
            <mxPoint x="545" y="459" as="sourcePoint" />
            <mxPoint x="615" y="459" as="targetPoint" />
          </mxGeometry>
        </mxCell>
        <mxCell id="bFQa1tYsNeAtM3Lu0oPh-5" value="WEMA&lt;br&gt;Mobile&lt;br&gt;App" style="shape=image;html=1;verticalAlign=bottom;verticalLabelPosition=top;imageAspect=0;aspect=fixed;image=https://cdn0.iconfinder.com/data/icons/business-660/512/283_Mobile_mobile_money_mobile_payment-128.png;dashed=0;fontColor=#232F3E;fontStyle=0;strokeColor=#ffffff;fillColor=#0000CC;gradientColor=#FF6666;gradientDirection=north;labelPosition=center;align=center;" vertex="1" parent="1">
          <mxGeometry x="368" y="417.5" width="70" height="70" as="geometry" />
        </mxCell>
        <mxCell id="bFQa1tYsNeAtM3Lu0oPh-6" value="5" style="rounded=1;whiteSpace=wrap;html=1;fillColor=#007CBD;strokeColor=none;fontColor=#FFFFFF;fontStyle=1;fontSize=22;" vertex="1" parent="1">
          <mxGeometry x="339" y="680" width="40" height="38" as="geometry" />
        </mxCell>
        <mxCell id="nzf0ck4mSkzZNCcZiq0Q-24" value="Card &lt;br&gt;enrollment&lt;br&gt;feeder" style="outlineConnect=0;fontColor=#232F3E;gradientColor=#FF6666;gradientDirection=north;fillColor=#0000CC;strokeColor=#ffffff;dashed=0;verticalLabelPosition=top;verticalAlign=bottom;align=center;html=1;fontSize=12;fontStyle=0;aspect=fixed;shape=mxgraph.aws4.resourceIcon;resIcon=mxgraph.aws4.glue;labelPosition=center;" parent="1" vertex="1">
          <mxGeometry x="119" y="419" width="64" height="64" as="geometry" />
        </mxCell>
        <mxCell id="bFQa1tYsNeAtM3Lu0oPh-10" value="" style="rounded=0;orthogonalLoop=1;jettySize=auto;html=1;strokeColor=#545B64;strokeWidth=2;endFill=1;endArrow=classic;startArrow=none;startFill=0;entryX=0.25;entryY=1;entryDx=0;entryDy=0;" edge="1" parent="1" source="nzf0ck4mSkzZNCcZiq0Q-24" target="nzf0ck4mSkzZNCcZiq0Q-11">
          <mxGeometry relative="1" as="geometry">
            <mxPoint x="399" y="429.5" as="sourcePoint" />
            <mxPoint x="352.6" y="360.78" as="targetPoint" />
          </mxGeometry>
        </mxCell>
        <mxCell id="bFQa1tYsNeAtM3Lu0oPh-11" value="" style="rounded=0;orthogonalLoop=1;jettySize=auto;html=1;strokeColor=#545B64;strokeWidth=2;endFill=1;endArrow=classic;startArrow=none;startFill=0;entryX=0.25;entryY=0;entryDx=0;entryDy=0;" edge="1" parent="1" source="nzf0ck4mSkzZNCcZiq0Q-24" target="nzf0ck4mSkzZNCcZiq0Q-4">
          <mxGeometry relative="1" as="geometry">
            <mxPoint x="187.28019323671504" y="429" as="sourcePoint" />
            <mxPoint x="246" y="357.5" as="targetPoint" />
          </mxGeometry>
        </mxCell>
        <mxCell id="bFQa1tYsNeAtM3Lu0oPh-12" value="" style="edgeStyle=orthogonalEdgeStyle;rounded=0;orthogonalLoop=1;jettySize=auto;html=1;strokeColor=#545B64;strokeWidth=2;endFill=1;endArrow=classic;startArrow=classic;startFill=1;exitX=0.5;exitY=0;exitDx=0;exitDy=0;" edge="1" parent="1" source="nzf0ck4mSkzZNCcZiq0Q-4" target="nzf0ck4mSkzZNCcZiq0Q-16">
          <mxGeometry relative="1" as="geometry">
            <mxPoint x="287" y="400" as="sourcePoint" />
            <mxPoint x="287" y="357.5" as="targetPoint" />
            <Array as="points" />
          </mxGeometry>
        </mxCell>
        <mxCell id="bFQa1tYsNeAtM3Lu0oPh-13" value="" style="rounded=0;orthogonalLoop=1;jettySize=auto;html=1;strokeColor=#545B64;strokeWidth=2;endFill=1;endArrow=classic;startArrow=classic;startFill=1;entryX=1;entryY=0;entryDx=0;entryDy=0;exitX=0.25;exitY=1;exitDx=0;exitDy=0;" edge="1" parent="1" source="bFQa1tYsNeAtM3Lu0oPh-5" target="nzf0ck4mSkzZNCcZiq0Q-4">
          <mxGeometry relative="1" as="geometry">
            <mxPoint x="399" y="429.5" as="sourcePoint" />
            <mxPoint x="352.6" y="360.78" as="targetPoint" />
          </mxGeometry>
        </mxCell>
        <mxCell id="bFQa1tYsNeAtM3Lu0oPh-14" value="2" style="rounded=1;whiteSpace=wrap;html=1;fillColor=#007CBD;strokeColor=none;fontColor=#FFFFFF;fontStyle=1;fontSize=22;" vertex="1" parent="1">
          <mxGeometry x="898.5" y="384.5" width="40" height="38" as="geometry" />
        </mxCell>
        <mxCell id="bFQa1tYsNeAtM3Lu0oPh-15" value="" style="whiteSpace=wrap;html=1;dashed=0;fontColor=#AAB7B8;fontStyle=0;align=left;verticalAlign=top;strokeColor=#000000;fillColor=none;gradientColor=none;spacingLeft=30;aspect=fixed;" vertex="1" parent="1">
          <mxGeometry x="796.5" y="446.5" width="164" height="164" as="geometry" />
        </mxCell>
        <mxCell id="bFQa1tYsNeAtM3Lu0oPh-16" value="Tranwall core&lt;br&gt;&lt;span style=&quot;text-align: left&quot;&gt;Production VM&lt;br&gt;&lt;/span&gt;" style="outlineConnect=0;fontColor=#232F3E;gradientColor=#CCCCCC;gradientDirection=north;fillColor=#333333;strokeColor=#ffffff;dashed=0;verticalLabelPosition=middle;verticalAlign=middle;align=left;html=1;fontSize=12;fontStyle=0;aspect=fixed;shape=mxgraph.aws4.resourceIcon;resIcon=mxgraph.aws4.compute;labelPosition=right;spacing=5;spacingBottom=-6;" vertex="1" parent="1">
          <mxGeometry x="796.5" y="446.5" width="40" height="40" as="geometry" />
        </mxCell>
        <mxCell id="bFQa1tYsNeAtM3Lu0oPh-17" value="&lt;span style=&quot;text-align: left&quot;&gt;&lt;b&gt;Tranwall&lt;br&gt;Core Service 1.6&lt;/b&gt;&lt;/span&gt;" style="outlineConnect=0;fontColor=#232F3E;gradientColor=#000000;gradientDirection=north;fillColor=#660000;strokeColor=#E6E6E6;dashed=0;verticalLabelPosition=bottom;verticalAlign=top;align=center;html=1;fontSize=12;fontStyle=0;aspect=fixed;shape=mxgraph.aws4.resourceIcon;resIcon=mxgraph.aws4.chime;shadow=0;" vertex="1" parent="1">
          <mxGeometry x="846.5" y="496.5" width="64" height="64" as="geometry" />
        </mxCell>
        <mxCell id="bFQa1tYsNeAtM3Lu0oPh-18" value="1" style="rounded=1;whiteSpace=wrap;html=1;fillColor=#007CBD;strokeColor=none;fontColor=#FFFFFF;fontStyle=1;fontSize=22;" vertex="1" parent="1">
          <mxGeometry x="693.5" y="383.5" width="40" height="38" as="geometry" />
        </mxCell>
        <mxCell id="bFQa1tYsNeAtM3Lu0oPh-19" value="Transaction Auth&amp;nbsp;&lt;br&gt;online system" style="outlineConnect=0;fontColor=#232F3E;gradientColor=#FF6666;gradientDirection=north;fillColor=#0000CC;strokeColor=#ffffff;dashed=0;verticalLabelPosition=top;verticalAlign=bottom;align=center;html=1;fontSize=12;fontStyle=0;aspect=fixed;shape=mxgraph.aws4.resourceIcon;resIcon=mxgraph.aws4.application_integration;labelPosition=center;" vertex="1" parent="1">
          <mxGeometry x="846.5" y="331.5" width="64" height="64" as="geometry" />
        </mxCell>
        <mxCell id="bFQa1tYsNeAtM3Lu0oPh-20" value="3" style="rounded=1;whiteSpace=wrap;html=1;fillColor=#007CBD;strokeColor=none;fontColor=#FFFFFF;fontStyle=1;fontSize=22;" vertex="1" parent="1">
          <mxGeometry x="1026.5" y="383.5" width="40" height="38" as="geometry" />
        </mxCell>
        <mxCell id="bFQa1tYsNeAtM3Lu0oPh-21" value="WEMA&lt;br&gt;Mobile&lt;br&gt;App" style="shape=image;html=1;verticalAlign=bottom;verticalLabelPosition=top;imageAspect=0;aspect=fixed;image=https://cdn0.iconfinder.com/data/icons/business-660/512/283_Mobile_mobile_money_mobile_payment-128.png;dashed=0;fontColor=#232F3E;fontStyle=0;strokeColor=#ffffff;fillColor=#0000CC;gradientColor=#FF6666;gradientDirection=north;labelPosition=center;align=center;" vertex="1" parent="1">
          <mxGeometry x="969.5" y="330" width="70" height="70" as="geometry" />
        </mxCell>
        <mxCell id="bFQa1tYsNeAtM3Lu0oPh-22" value="5" style="rounded=1;whiteSpace=wrap;html=1;fillColor=#007CBD;strokeColor=none;fontColor=#FFFFFF;fontStyle=1;fontSize=22;" vertex="1" parent="1">
          <mxGeometry x="940.5" y="592.5" width="40" height="38" as="geometry" />
        </mxCell>
        <mxCell id="bFQa1tYsNeAtM3Lu0oPh-23" value="Card &lt;br&gt;enrollment&lt;br&gt;feeder" style="outlineConnect=0;fontColor=#232F3E;gradientColor=#FF6666;gradientDirection=north;fillColor=#0000CC;strokeColor=#ffffff;dashed=0;verticalLabelPosition=top;verticalAlign=bottom;align=center;html=1;fontSize=12;fontStyle=0;aspect=fixed;shape=mxgraph.aws4.resourceIcon;resIcon=mxgraph.aws4.glue;labelPosition=center;" vertex="1" parent="1">
          <mxGeometry x="720.5" y="331.5" width="64" height="64" as="geometry" />
        </mxCell>
        <mxCell id="bFQa1tYsNeAtM3Lu0oPh-24" value="" style="rounded=0;orthogonalLoop=1;jettySize=auto;html=1;strokeColor=#545B64;strokeWidth=2;endFill=1;endArrow=classic;startArrow=none;startFill=0;entryX=0.25;entryY=0;entryDx=0;entryDy=0;" edge="1" parent="1" source="bFQa1tYsNeAtM3Lu0oPh-23" target="bFQa1tYsNeAtM3Lu0oPh-15">
          <mxGeometry relative="1" as="geometry">
            <mxPoint x="788.780193236715" y="341.5" as="sourcePoint" />
            <mxPoint x="847.5" y="270" as="targetPoint" />
          </mxGeometry>
        </mxCell>
        <mxCell id="bFQa1tYsNeAtM3Lu0oPh-25" value="" style="edgeStyle=orthogonalEdgeStyle;rounded=0;orthogonalLoop=1;jettySize=auto;html=1;strokeColor=#545B64;strokeWidth=2;endFill=1;endArrow=classic;startArrow=classic;startFill=1;exitX=0.5;exitY=0;exitDx=0;exitDy=0;" edge="1" parent="1" source="bFQa1tYsNeAtM3Lu0oPh-15" target="bFQa1tYsNeAtM3Lu0oPh-19">
          <mxGeometry relative="1" as="geometry">
            <mxPoint x="888.5" y="312.5" as="sourcePoint" />
            <mxPoint x="888.5" y="270" as="targetPoint" />
            <Array as="points" />
          </mxGeometry>
        </mxCell>
        <mxCell id="bFQa1tYsNeAtM3Lu0oPh-26" value="" style="rounded=0;orthogonalLoop=1;jettySize=auto;html=1;strokeColor=#545B64;strokeWidth=2;endFill=1;endArrow=classic;startArrow=classic;startFill=1;entryX=1;entryY=0;entryDx=0;entryDy=0;exitX=0.25;exitY=1;exitDx=0;exitDy=0;" edge="1" parent="1" source="bFQa1tYsNeAtM3Lu0oPh-21" target="bFQa1tYsNeAtM3Lu0oPh-15">
          <mxGeometry relative="1" as="geometry">
            <mxPoint x="1000.5" y="342" as="sourcePoint" />
            <mxPoint x="954.1" y="273.28" as="targetPoint" />
          </mxGeometry>
        </mxCell>
      </root>
    </mxGraphModel>
  </diagram>
</mxfile>
